<mxfile host="app.diagrams.net" modified="2023-04-06T20:54:10.804Z" agent="Mozilla/5.0 (Macintosh; Intel Mac OS X 10_15_7) AppleWebKit/605.1.15 (KHTML, like Gecko) Version/16.3 Safari/605.1.15" etag="VCpiiAzJzVQAzPS86jNC" version="21.1.4" type="google">
  <diagram name="PÃ¡gina-1" id="m7R6rnNXKNBc2FbAgsp0">
    <mxGraphModel grid="1" page="1" gridSize="10" guides="1" tooltips="1" connect="1" arrows="1" fold="1" pageScale="1" pageWidth="827" pageHeight="1169" math="0" shadow="0">
      <root>
        <mxCell id="0" />
        <mxCell id="1" parent="0" />
        <mxCell id="7Hi7-8qezYFhFGmVIDQ5-3" value="" style="edgeStyle=orthogonalEdgeStyle;rounded=0;orthogonalLoop=1;jettySize=auto;html=1;strokeWidth=3;fontSize=15;" edge="1" parent="1" source="7Hi7-8qezYFhFGmVIDQ5-1" target="7Hi7-8qezYFhFGmVIDQ5-2">
          <mxGeometry relative="1" as="geometry" />
        </mxCell>
        <mxCell id="7Hi7-8qezYFhFGmVIDQ5-1" value="inicio" style="ellipse;whiteSpace=wrap;html=1;strokeWidth=3;fontSize=15;fillColor=#b1ddf0;strokeColor=#10739e;" vertex="1" parent="1">
          <mxGeometry x="354" y="10" width="120" height="80" as="geometry" />
        </mxCell>
        <mxCell id="7Hi7-8qezYFhFGmVIDQ5-5" value="" style="edgeStyle=orthogonalEdgeStyle;rounded=0;orthogonalLoop=1;jettySize=auto;html=1;strokeWidth=3;fontSize=15;" edge="1" parent="1" source="7Hi7-8qezYFhFGmVIDQ5-2" target="7Hi7-8qezYFhFGmVIDQ5-4">
          <mxGeometry relative="1" as="geometry" />
        </mxCell>
        <mxCell id="7Hi7-8qezYFhFGmVIDQ5-2" value="percurso, hora, minuto" style="shape=parallelogram;perimeter=parallelogramPerimeter;whiteSpace=wrap;html=1;fixedSize=1;strokeWidth=3;fontSize=15;fillColor=#fff2cc;strokeColor=#d6b656;" vertex="1" parent="1">
          <mxGeometry x="317" y="130" width="194" height="60" as="geometry" />
        </mxCell>
        <mxCell id="7Hi7-8qezYFhFGmVIDQ5-7" value="" style="edgeStyle=orthogonalEdgeStyle;rounded=0;orthogonalLoop=1;jettySize=auto;html=1;strokeWidth=3;fontSize=15;" edge="1" parent="1" source="7Hi7-8qezYFhFGmVIDQ5-4" target="7Hi7-8qezYFhFGmVIDQ5-6">
          <mxGeometry relative="1" as="geometry" />
        </mxCell>
        <mxCell id="7Hi7-8qezYFhFGmVIDQ5-4" value="tempo&amp;lt;- minuto/60+hora" style="whiteSpace=wrap;html=1;strokeWidth=3;fontSize=15;fillColor=#d5e8d4;strokeColor=#82b366;" vertex="1" parent="1">
          <mxGeometry x="317" y="230" width="194" height="60" as="geometry" />
        </mxCell>
        <mxCell id="7Hi7-8qezYFhFGmVIDQ5-9" value="" style="edgeStyle=orthogonalEdgeStyle;rounded=0;orthogonalLoop=1;jettySize=auto;html=1;strokeWidth=3;fontSize=15;" edge="1" parent="1" source="7Hi7-8qezYFhFGmVIDQ5-6" target="7Hi7-8qezYFhFGmVIDQ5-8">
          <mxGeometry relative="1" as="geometry" />
        </mxCell>
        <mxCell id="7Hi7-8qezYFhFGmVIDQ5-6" value="velocidade&amp;lt;- percurso/tempo" style="whiteSpace=wrap;html=1;strokeWidth=3;fontSize=15;fillColor=#d5e8d4;strokeColor=#82b366;" vertex="1" parent="1">
          <mxGeometry x="302" y="340" width="224" height="60" as="geometry" />
        </mxCell>
        <mxCell id="7Hi7-8qezYFhFGmVIDQ5-13" value="" style="edgeStyle=orthogonalEdgeStyle;rounded=0;orthogonalLoop=1;jettySize=auto;html=1;fontSize=15;strokeWidth=3;exitX=0.499;exitY=0.864;exitDx=0;exitDy=0;exitPerimeter=0;" edge="1" parent="1" source="7Hi7-8qezYFhFGmVIDQ5-8" target="7Hi7-8qezYFhFGmVIDQ5-10">
          <mxGeometry relative="1" as="geometry" />
        </mxCell>
        <mxCell id="7Hi7-8qezYFhFGmVIDQ5-8" value="velocidade" style="shape=document;whiteSpace=wrap;html=1;boundedLbl=1;strokeWidth=3;fontSize=15;fillColor=#fff2cc;strokeColor=#d6b656;" vertex="1" parent="1">
          <mxGeometry x="354" y="440" width="120" height="80" as="geometry" />
        </mxCell>
        <mxCell id="7Hi7-8qezYFhFGmVIDQ5-10" value="fim" style="ellipse;whiteSpace=wrap;html=1;strokeWidth=3;fontSize=15;fillColor=#b1ddf0;strokeColor=#10739e;" vertex="1" parent="1">
          <mxGeometry x="354" y="570" width="120" height="80" as="geometry" />
        </mxCell>
      </root>
    </mxGraphModel>
  </diagram>
</mxfile>
